# xmcd CD database file
#
# Track frame offsets:
#	150
#	20485
#	49950
#	78367
#	112122
#	134962
#	157600
#	180875
#	213212
#	238525
#
# Disc length: 3647 seconds
#
# Revision: 0
# Processed by: cddbd v1.5.1PL0 Copyright (c) Steve Scherf et al.
# Submitted via: CDex 1.51
#
DISCID=7d0e3d0a
DTITLE=alan broadbent - another time
DYEAR=1987
DGENRE=Jazz
TTITLE0=airegin
TTITLE1=another time
TTITLE2='s wonderfull
TTITLE3=317 E. 32nd street
TTITLE4=misery
TTITLE5=visa
TTITLE6=alison's waltz
TTITLE7=nardis
TTITLE8=star eyes
TTITLE9=E. 32nd elegy
EXTD=YEAR: 1987
EXTT0=
EXTT1=
EXTT2=
EXTT3=
EXTT4=
EXTT5=
EXTT6=
EXTT7=
EXTT8=
EXTT9=
PLAYORDER=
